<svg viewBox="0 0 563.17 336.51" xmlns="http://www.w3.org/2000/svg" xmlns:xlink="http://www.w3.org/1999/xlink" id="Layer_1" overflow="hidden"><path d="M412.6 284.64C407.26 287.57 401.32 289.07 395.87 289.3 390.42 289.53 386.79 285.75 386.22 280.8L385.33 273.17 348.08 281.9C340.74 283.62 333.74 284.17 325.97 284.77L268.75 334.25C265.85 336.76 261.5 337.72 258.88 334.31 268.84 324.19 278.02 315.03 288.37 305.81L408.77 198.5C409.67 197.7 410.43 194.67 409.45 194.63L375.83 203.9C374.11 204.37 370.73 203.74 369.4 203.06 367.9 202.3 366.55 198.55 367.03 196.85L371.14 182.29C346.37 198.32 321.21 210.88 293.59 219.24 288.2 220.87 282.5 221.09 277.67 218.51 273.76 216.43 272.83 211.79 271.92 207.59 256 219.38 232.52 230.96 214.94 238.67 211.22 240.3 204.95 240.86 202.59 237.51 199.92 233.72 201.53 227.51 204.38 223.78 213.33 212.04 223.17 200.8 232.92 189.69 233.47 189.07 233.95 186.84 233.73 186.09 232.38 181.53 211.21 191.29 207.76 193.16 196.82 199.07 186.61 204.9 176.39 211.93 164.27 220.26 151.28 226.35 139.68 235.55 119.48 251.56 102.39 270.66 85.02 289.54 82.96 291.78 81.44 293.23 78.61 291.92 76.61 291 76.05 287.25 77.61 285.13 82.89 277.97 88.27 271.38 94.78 265.34L138.55 224.79 202.42 163.61C203.09 162.97 203.57 161.35 203.36 160.88 203.08 160.25 201.37 159.38 200.29 159.59 180.53 163.43 159.04 167.3 138.45 170.06 115.55 173.13 94.6 179.36 74.06 189.9 50.05 202.21 28.44 217.67 10.33 237.62 6.42 241.92 4.85 246.82 2.48 253.06-8.06 243.33 18.14 218.74 25.45 212.95 43.09 198.98 62 187.26 82.73 178.18 99.22 170.95 116.14 167.39 133.92 164.34L213.54 150.71 273.6 91.25C305.85 59.32 337.4 21.56 381.11 3.5 395.06-2.27 410.88-1.08 422.54 8.42 427.61 12.55 431.7 17.94 432.67 24.45 434.03 33.61 432.35 43.02 427.58 51.06 412.41 76.6 393.2 96.85 366.01 109.85 339.63 122.47 312.99 132.6 285.29 142.11 263.49 149.6 242.15 153.96 219.27 156.89L171.72 203.02C181.99 200.96 188.3 194.32 196.77 190.44 209.65 182.84 222.72 177.18 237.76 175.29 239.66 175.05 243.82 175.53 244.85 176.99 247.02 180.09 246.23 185.6 243.77 188.39L227.41 207.01C220.54 214.82 213.93 221.96 208.25 231.18 212.44 232.23 216.04 231.56 219.42 229.85 250.74 214.01 253.37 212.07 282.2 192.93 285.42 190.79 289.55 189.97 292.71 192.42L281.35 203.74C280.24 204.84 280.55 208.79 281.48 209.88 282.54 211.13 285.74 213.02 287.73 212.57 303.66 208.99 318.24 203.5 332.69 196.08 350.8 186.78 367.62 176.89 385.07 166.43 386.4 165.63 388.71 165.49 389.74 166.12 396.63 170.32 376.16 186.03 374.39 196.35 390.34 192.75 405.42 189.82 420.46 184.68 426.96 182.46 432.52 175.82 437.6 171.09 458.34 151.78 477.66 132.19 500.03 114.68 517.29 101.17 535.22 89.94 553.24 77.62 556.1 75.67 561.78 75.78 563.05 79.06 563.75 80.88 561.35 84.8 559.76 86.32L535.66 109.5C523.79 120.92 512.9 132.6 499.4 142.06L439.37 184.11 335.65 275.19C339.23 276.25 341.66 275.83 344.51 275.07L377.8 266.18C381.18 265.28 385.04 264.85 388.5 264.55 396.41 263.87 392.86 274.9 396.05 280.26 408.6 276.53 418.9 270.89 430.1 264.56 440.16 258.87 470.92 246.76 482.69 253.65 473.84 258.36 464.77 259.08 456.02 262.74 440.99 269.03 427.19 276.62 412.58 284.64ZM247.44 145.68C256.25 144.12 263.8 142.62 271.71 140.04 294.16 132.7 315.8 125 337.78 116.3 374.73 101.68 404.9 80.91 423.79 45.4 426.22 40.83 427.43 35.36 427.65 30.51 428.11 20.56 422.41 13.82 414.18 10.06 403.04 4.96 391.9 5.43 380.98 10.79 369.48 16.43 358.91 22.64 348.54 30.18 340.12 36.32 333.13 43.06 325.45 50.04 309.73 64.34 295.64 78.04 280.66 93.46 276.25 98 225.18 147.51 227.49 148.37 227.85 148.5 229.33 148.9 229.87 148.81L247.44 145.7ZM486.07 143.55C504.25 128.28 522.16 113.47 538.85 96.18 518.15 110.15 499.38 125.21 480.59 141.07 474.27 146.4 467.81 151.3 464.3 159.02 472.56 154.43 479.21 149.32 486.07 143.55Z" fill="#46C800"/></svg>