<svg viewBox="0 0 1594.18 169.03" xmlns="http://www.w3.org/2000/svg" xmlns:xlink="http://www.w3.org/1999/xlink" id="Layer_1" overflow="hidden"><g><g><path d="M776.76 121.68C770.58 127.04 774.37 137.19 782.55 137.19L852.51 137.19 852.51 146.75 788.08 146.75C784.44 146.75 780.96 145.31 778.38 142.73L769.86 134.21C764.42 128.77 764.48 119.77 770.25 114.67 770.29 114.63 770.34 114.59 770.38 114.55L839.75 54.4C841.78 52.63 842.96 50.07 842.96 47.36L842.96 33.79C842.96 28.65 838.79 24.48 833.65 24.48L784.78 24.48C779.63 24.48 775.46 28.65 775.46 33.79L775.46 50.11 765.9 50.11 765.9 39.59C765.9 35.98 767.34 32.51 769.9 29.95L780.95 18.92C783.5 16.37 786.97 14.93 790.58 14.93L827.84 14.93C831.46 14.93 834.93 16.37 837.49 18.93L848.52 29.96C851.08 32.52 852.51 35.98 852.51 39.59L852.51 47.29C852.51 52.8 850.12 58.05 845.95 61.66L776.76 121.66Z" fill="#FFFFFF"/><path d="M986.93 71.95C986.88 71.85 986.88 71.8 986.88 71.74 982.49 39.67 954.97 14.94 921.66 14.94 884.48 14.94 854.53 45.67 855.77 83.11 856.39 101.91 865.07 118.79 878.39 130.46 881.13 132.84 884.02 135 887.12 136.92 887.17 136.92 887.22 136.97 887.27 137.02 896.05 142.44 906.22 145.85 917.12 146.57 917.53 146.62 917.95 146.67 918.36 146.67 925.49 147.03 932.46 146.2 938.97 144.45 943.62 143.16 947.85 140.63 951.26 137.22L978.01 110.47C981.42 107.06 983.95 102.88 985.24 98.28 986.74 92.7 987.56 86.87 987.56 80.83 987.56 77.78 987.35 74.89 986.94 71.95ZM921.66 137.17C908.8 137.17 896.92 132.89 887.47 125.55 887.11 125.34 886.8 125.09 886.49 124.83 873.53 114.55 865.27 98.65 865.27 80.83 865.27 49.74 890.52 24.49 921.66 24.49 952.8 24.49 975.62 47.42 977.84 76.54L977.84 76.64C977.94 77.98 978 79.43 978 80.82 978 111.96 952.75 137.16 921.66 137.16Z" fill="#FFFFFF"/><g><g><path d="M1007.91 31.14 1007.91 58.4C1007.91 62.18 1011.05 65.25 1014.9 65.25L1020.91 65.25 1020.91 69.65 1014.9 69.65C1008.62 69.65 1003.51 64.61 1003.51 58.4L1003.51 31.14 995.55 31.14 995.55 26.74 1003.51 26.74 1003.51 15.14 1007.9 15.14 1007.9 26.74 1020.9 26.74 1020.9 31.14 1007.9 31.14Z" fill="#46C800"/><path d="M1044.25 28.82C1053.51 28.82 1061.03 36.35 1061.03 45.6L1061.03 69.64 1056.63 69.64 1056.63 45.6C1056.63 38.77 1051.07 33.21 1044.24 33.21 1037.41 33.21 1031.87 38.76 1031.86 45.57L1031.86 69.63 1027.47 69.63 1027.47 15.23 1031.86 15.23 1031.86 34.32C1034.93 30.95 1039.34 28.82 1044.25 28.82L1044.25 28.82Z" fill="#46C800"/></g><g><path d="M1030.21 132.25 1004.72 132.25 1000.25 146.76 995.66 146.76 1011.12 96.52C1011.92 93.89 1014.42 92.19 1017.47 92.19 1020.52 92.19 1023.02 93.89 1023.82 96.52L1039.28 146.76 1034.69 146.76 1030.22 132.25ZM1006.06 127.86 1028.85 127.86 1019.61 97.81C1019.34 96.91 1018.28 96.59 1017.46 96.59 1016.64 96.59 1015.58 96.91 1015.31 97.81L1006.07 127.86Z" fill="#FFFFFF"/><path d="M1096.04 92.29 1096.04 144.56C1096.04 145.53 1095.4 146.38 1094.48 146.66 1094.27 146.72 1094.06 146.75 1093.84 146.75 1093.12 146.75 1092.43 146.39 1092.01 145.77L1062.65 101.61 1062.65 146.7 1058.26 146.7 1058.26 94.33C1058.26 93.36 1058.9 92.51 1059.82 92.23 1060.75 91.95 1061.75 92.31 1062.28 93.12L1091.64 137.29 1091.64 92.3 1096.03 92.3Z" fill="#FFFFFF"/><path d="M1157.02 92.29 1157.02 144.56C1157.02 145.53 1156.38 146.38 1155.46 146.66 1155.25 146.72 1155.04 146.75 1154.82 146.75 1154.1 146.75 1153.41 146.39 1152.99 145.77L1123.63 101.61 1123.63 146.7 1119.24 146.7 1119.24 94.33C1119.24 93.36 1119.87 92.51 1120.8 92.23 1121.73 91.95 1122.73 92.31 1123.26 93.12L1152.62 137.29 1152.62 92.3 1157.01 92.3Z" fill="#FFFFFF"/><path d="M1180.23 146.76 1180.23 92.39 1184.62 92.39 1184.62 146.76 1180.23 146.76Z" fill="#FFFFFF"/><path d="M1247.17 92.45 1231.72 142.54C1230.9 145.11 1228.39 146.76 1225.36 146.76 1222.33 146.76 1219.83 145.11 1219.02 142.57L1203.56 92.45 1208.16 92.45 1223.2 141.25C1223.44 142.01 1224.46 142.36 1225.36 142.36 1226.26 142.36 1227.27 142.01 1227.52 141.22L1242.55 92.45 1247.17 92.45Z" fill="#FFFFFF"/><path d="M1276.96 96.68C1273.1 96.68 1269.97 99.75 1269.97 103.53L1269.97 116.84 1294.69 116.84 1294.69 121.23 1269.97 121.23 1269.97 135.5C1269.97 139.28 1273.11 142.35 1276.96 142.35L1298.37 142.35 1298.37 146.75 1276.96 146.75C1270.68 146.75 1265.57 141.71 1265.57 135.5L1265.57 103.52C1265.57 97.32 1270.68 92.27 1276.96 92.27L1298.37 92.27 1298.37 96.67 1276.96 96.67Z" fill="#FFFFFF"/><path d="M1353.61 146.76 1342.72 123.13 1330.69 123.13 1330.69 123.1 1322.88 123.1 1322.88 146.77 1318.49 146.77 1318.49 94.34C1318.49 93.13 1319.48 92.14 1320.69 92.14L1342.2 92.14C1342.2 92.14 1345.74 92.14 1345.74 92.14 1352.5 92.14 1358 97.64 1358 104.4L1358 110.86C1358 116.98 1353.48 122.05 1347.61 122.96L1347.61 123.09 1347.54 123.09 1358.44 146.76 1353.61 146.76ZM1322.88 118.69 1346.41 118.69C1350.43 118.34 1353.6 114.97 1353.6 110.86L1353.6 104.4C1353.6 100.06 1350.07 96.53 1345.73 96.53L1328.36 96.53C1328.36 96.53 1322.87 96.53 1322.87 96.53L1322.87 118.7Z" fill="#FFFFFF"/><path d="M1418.45 132.03C1418.45 140.15 1409.23 146.75 1397.89 146.75 1386.55 146.75 1378.08 140.66 1377.39 132.99L1381.73 132.03C1381.74 137.63 1389.13 142.35 1397.89 142.35 1406.65 142.35 1414.06 137.62 1414.06 132.02 1414.06 126.42 1406.76 121.76 1398.07 121.69 1398.01 121.7 1397.96 121.7 1397.89 121.7 1386.36 121.7 1377.33 115.23 1377.33 106.97 1377.33 98.71 1386.55 92.25 1397.89 92.25 1409.23 92.25 1417.72 98.34 1418.41 106.02L1414.06 106.97C1414.05 101.37 1406.65 96.65 1397.89 96.65 1389.13 96.65 1381.73 101.38 1381.73 106.98 1381.73 112.58 1389.03 117.24 1397.72 117.31 1397.79 117.31 1397.84 117.3 1397.89 117.3 1409.23 117.3 1418.45 123.9 1418.45 132.03Z" fill="#FFFFFF"/><path d="M1469.79 132.25 1444.3 132.25 1439.83 146.76 1435.24 146.76 1450.7 96.52C1451.5 93.89 1454 92.19 1457.05 92.19 1460.1 92.19 1462.6 93.89 1463.4 96.52L1478.86 146.76 1474.27 146.76 1469.8 132.25ZM1445.64 127.86 1468.43 127.86 1459.19 97.81C1458.92 96.91 1457.86 96.59 1457.04 96.59 1456.22 96.59 1455.16 96.91 1454.89 97.81L1445.65 127.86Z" fill="#FFFFFF"/><path d="M1532.96 146.76 1522.07 123.13 1510.04 123.13 1510.04 123.1 1502.23 123.1 1502.23 146.77 1497.84 146.77 1497.84 94.34C1497.84 93.13 1498.83 92.14 1500.04 92.14L1521.55 92.14C1521.55 92.14 1525.09 92.14 1525.09 92.14 1531.85 92.14 1537.35 97.64 1537.35 104.4L1537.35 110.86C1537.35 116.98 1532.83 122.05 1526.96 122.96L1526.96 123.09 1526.89 123.09 1537.79 146.76 1532.96 146.76ZM1502.23 118.69 1525.76 118.69C1529.78 118.34 1532.95 114.97 1532.95 110.86L1532.95 104.4C1532.95 100.06 1529.42 96.53 1525.08 96.53L1507.71 96.53C1507.71 96.53 1502.22 96.53 1502.22 96.53L1502.22 118.7Z" fill="#FFFFFF"/><path d="M1594.18 92.37 1579.3 116.73C1578.49 118.06 1577.28 119.03 1575.86 119.51L1575.86 146.76 1571.47 146.76 1571.47 119.51 1571.47 119.51C1570.06 119.03 1568.86 118.06 1568.04 116.73L1553.16 92.37 1558.3 92.37 1571.79 114.45C1571.88 114.6 1571.98 114.73 1572.09 114.83L1575.25 114.83C1575.36 114.72 1575.46 114.6 1575.55 114.45L1589.04 92.37 1594.19 92.37Z" fill="#FFFFFF"/></g></g></g><line x1="674.56" y1="0" x2="674.56" y2="161.7" stroke="#FFFFFF" stroke-miterlimit="10" fill="none"/></g><g><g><path d="M99.97 13.13 0 13.13 0 113.1C0 143.99 25.04 169.03 55.93 169.03L155.9 169.03C155.9 169.03 155.9 69.06 155.9 69.06 155.9 38.17 130.86 13.13 99.97 13.13Z" fill="#46C800"/><g><circle cx="77.95" cy="91.08" r="52.65" fill="#FFFFFF"/><path d="M77.95 38.43C99.88 38.43 117.65 56.21 117.65 78.13 117.65 100.05 99.87 117.83 77.95 117.83L77.95 117.81C66.99 117.81 58.1 108.92 58.1 97.96 58.1 87 66.99 78.11 77.95 78.11L77.95 78.13C88.91 78.13 97.8 69.24 97.8 58.28 97.8 47.32 88.91 38.43 77.95 38.43Z" fill="#46C800"/></g></g><g><path d="M348.36 44 333.18 44 333.18 111.6 294.31 48.94C292.37 45.82 288.96 43.92 285.29 43.92L285.29 43.92C279.43 43.92 274.68 48.67 274.68 54.53L274.68 138.29 289.86 138.29 289.86 70.54 328.72 133.19C330.66 136.31 334.07 138.21 337.74 138.21L337.74 138.21C343.6 138.21 348.35 133.46 348.35 127.6L348.35 44Z" fill="#FFFFFF"/><rect x="366.9" y="44" width="15.18" height="94.3" fill="#FFFFFF"/><path d="M245.13 44 245.13 109.39C245.13 116.98 238.98 123.13 231.39 123.13L215.54 123.13C207.95 123.13 201.8 116.98 201.8 109.39L201.8 44C201.8 44 186.62 44 186.62 44L186.62 109.42C186.62 125.37 199.55 138.3 215.5 138.3L231.42 138.3C247.37 138.3 260.3 125.37 260.3 109.42L260.3 44C260.3 44 245.12 44 245.12 44Z" fill="#FFFFFF"/><path d="M496.44 59.18 534.77 59.18 534.77 44 496.38 44C483.4 44 472.89 54.52 472.89 67.49L472.89 114.79C472.89 127.77 483.42 138.3 496.4 138.3L534.78 138.3 534.78 123.12 496.45 123.12C491.82 123.12 488.07 119.37 488.07 114.74L488.07 97.41 527.94 97.41 527.94 82.23 488.07 82.23 488.07 67.56C488.07 62.93 491.82 59.18 496.45 59.18Z" fill="#FFFFFF"/><path d="M549.15 44 549.15 114.79C549.15 127.77 559.68 138.3 572.66 138.3L600 138.3 600 123.12 572.71 123.12C568.08 123.12 564.33 119.37 564.33 114.74L564.33 44 549.15 44Z" fill="#FFFFFF"/><path d="M394.28 44 394.28 59.18 421.88 59.18 421.88 138.3 437.06 138.3 437.06 59.18 463.19 59.18 463.19 44 394.28 44Z" fill="#FFFFFF"/></g></g></svg>