<svg viewBox="0 0 413.37 94.38" xmlns="http://www.w3.org/2000/svg" xmlns:xlink="http://www.w3.org/1999/xlink" id="Isolation_Mode" overflow="hidden"><path d="M161.73 0.07 146.55 0.07 146.55 67.67 107.69 5.02C105.75 1.9 102.34 0 98.67 0L98.67 0C92.81 0 88.06 4.75 88.06 10.61L88.06 94.37 103.24 94.37 103.24 26.63 142.1 89.28C144.04 92.4 147.45 94.3 151.12 94.3L151.12 94.3C156.98 94.3 161.73 89.55 161.73 83.69L161.73 0.07Z" fill="#FFFFFF"/><rect x="180.27" y="0.07" width="15.18" height="94.3" fill="#FFFFFF"/><path d="M58.5 0.07 58.5 65.46C58.5 73.05 52.35 79.2 44.76 79.2L28.91 79.2C21.32 79.2 15.17 73.05 15.17 65.46L15.17 0.07C15.17 0.07 0 0.07 0 0.07L0 65.49C0 81.44 12.93 94.37 28.88 94.37L44.8 94.37C60.75 94.37 73.68 81.44 73.68 65.49L73.68 0.07C73.68 0.07 58.5 0.07 58.5 0.07Z" fill="#FFFFFF"/><path d="M309.81 15.25 348.14 15.25 348.14 0.07 309.75 0.07C296.77 0.07 286.26 10.59 286.26 23.56L286.26 70.86C286.26 83.84 296.79 94.37 309.77 94.37L348.15 94.37 348.15 79.19 309.82 79.19C305.19 79.19 301.44 75.44 301.44 70.81L301.44 53.48 341.31 53.48 341.31 38.3 301.44 38.3 301.44 23.63C301.44 19 305.19 15.25 309.82 15.25Z" fill="#FFFFFF"/><path d="M362.52 0.07 362.52 70.86C362.52 83.84 373.05 94.37 386.03 94.37L413.37 94.37 413.37 79.19 386.08 79.19C381.45 79.19 377.7 75.44 377.7 70.81L377.7 0.07 362.52 0.07Z" fill="#FFFFFF"/><path d="M207.65 0.07 207.65 15.25 235.25 15.25 235.25 94.38 250.43 94.38 250.43 15.25 276.56 15.25 276.56 0.07 207.65 0.07Z" fill="#FFFFFF"/></svg>